HIERARCHY
ROOT hip
{
	OFFSET 0.000000 0.000000 0.000000
	CHANNELS 6  Xposition Yposition Zposition Xrotation Zrotation Yrotation
	JOINT abdomen
	{
		OFFSET 0.000000 3.402643 0.000000
			CHANNELS 3 Xrotation Zrotation Yrotation
		JOINT chest
		{
			OFFSET 0.000000 8.438565 -0.680529
				CHANNELS 3 Xrotation Zrotation Yrotation
			JOINT neck
			{
				OFFSET 0.000000 10.207942 -0.272212
					CHANNELS 3 Xrotation Zrotation Yrotation
				JOINT head
				{
					OFFSET 0.000000 3.130431 0.000000
						CHANNELS 3 Xrotation Zrotation Yrotation
					End Site
					{
						OFFSET 0.000000 3.130435 0.000000
					}
				}
			}
			JOINT lCollar
			{
				OFFSET 3.470700 6.669187 -0.816635
					CHANNELS 3 Yrotation Zrotation Xrotation
				JOINT lShldr
				{
					OFFSET 3.198488 0.000000 0.000000
						CHANNELS 3 Zrotation Yrotation Xrotation
					JOINT lForeArm
					{
						OFFSET 10.139888 0.000000 0.000000
							CHANNELS 3 Yrotation Zrotation Xrotation
						JOINT lHand
						{
							OFFSET 8.370511 0.000000 0.000000
								CHANNELS 3 Zrotation Yrotation Xrotation
							End Site
							{
								OFFSET 4.083176 0.000000 0.000000
							}
						}
					}
				}
			}
			JOINT rCollar
			{
				OFFSET -3.470700 6.669187 -0.816635
					CHANNELS 3 Yrotation Zrotation Xrotation
				JOINT rShldr
				{
					OFFSET -3.198488 0.000000 0.000000
						CHANNELS 3 Zrotation Yrotation Xrotation
					JOINT rForeArm
					{
						OFFSET -10.139888 0.000000 0.000000
							CHANNELS 3 Yrotation Zrotation Xrotation
						JOINT rHand
						{
							OFFSET -8.370511 0.000000 0.000000
								CHANNELS 3 Zrotation Yrotation Xrotation
							End Site
							{
								OFFSET -4.083176 0.000000 0.000000
							}
						}
					}
				}
			}
		}
	}
	JOINT lThigh 
	{
		OFFSET 5.308129 -1.633274 1.361059
			CHANNELS 3 Xrotation Zrotation Yrotation
		JOINT lShin
		{
			OFFSET -2.041588 -20.007561 0.000000
				CHANNELS 3 Xrotation Zrotation Yrotation
			JOINT lFoot
			{
				OFFSET 0.000000 -19.190928 -1.224953
					CHANNELS 3 Xrotation Yrotation Zrotation
				End Site
				{
					OFFSET 0.000000 -2.449906 4.627600
				}
			}
		}
	}
	JOINT rThigh
	{
		OFFSET -5.308129 -1.633274 1.361059
			CHANNELS 3 Xrotation Zrotation Yrotation
		JOINT rShin
		{
			OFFSET 2.041588 -20.007561 0.000000
				CHANNELS 3 Xrotation Zrotation Yrotation
			JOINT rFoot
			{
				OFFSET 0.000000 -19.190928 -1.224953
					CHANNELS 3 Xrotation Yrotation Zrotation
				End Site
				{
					OFFSET 0.000000 -2.449906 4.627600
				}
			}
		}
	}
}
MOTION
Frames: 21
Frame Time: 0.032000
1738.514893 45.896957 2633.288086 3.16 -22.93 87.17 3.79 -2.13 -6.59 1.62 -0.91 -2.82 -5.58 -0.30 2.32 5.09 4.02 2.18 0.16 -4.05 -0.17 -80.76 -8.26 9.01 -108.57 3.44 43.60 13.84 12.65 2.99 5.07 -5.30 -0.06 75.06 -26.54 11.94 85.36 -3.02 34.34 -34.34 9.24 -6.55 -37.19 -1.61 2.77 47.73 -0.41 -3.12 -6.00 -3.15 -12.47 -59.14 -12.30 -4.34 122.90 -4.75 2.43 -0.00 -0.00 0.00 
1755.629150 47.676895 2633.931885 1.06 -23.86 87.85 3.67 1.84 -11.64 1.57 0.79 -4.98 -5.52 0.31 5.95 6.43 0.36 6.03 1.93 -2.62 -0.09 -85.15 -15.29 7.39 -112.95 3.20 40.16 14.03 14.10 3.44 4.28 -6.79 -0.07 64.71 -34.80 19.92 87.40 -2.80 32.87 -33.71 10.32 -6.93 -25.98 1.64 0.63 41.77 -0.43 -2.98 4.13 -6.15 -11.69 -69.13 -9.37 -4.84 110.11 -4.20 3.36 -0.00 -0.00 0.00 
1755.909912 48.328449 2634.069336 -0.14 -25.78 88.24 3.89 4.93 -15.36 1.67 2.12 -6.58 -7.84 2.77 7.14 7.52 -2.45 7.59 2.53 -1.42 -0.12 -86.98 -21.40 10.27 -117.93 3.12 39.13 14.27 15.50 3.85 4.97 -10.13 -0.04 56.97 -43.72 25.85 88.18 -1.75 18.58 -30.67 13.59 -8.04 -19.94 4.17 -0.90 37.15 -0.87 -2.53 7.99 -5.24 -11.23 -78.45 -5.64 -1.65 104.60 -3.71 3.26 -0.00 -0.00 0.00 
1760.341064 49.613235 2633.767334 -2.66 -27.04 89.30 3.55 7.11 -15.41 1.52 3.04 -6.60 -7.84 4.52 7.79 8.04 -6.04 8.55 3.33 -0.22 -0.16 -86.50 -21.57 10.76 -121.67 3.32 41.69 16.13 18.53 5.23 6.33 -12.65 -0.00 52.99 -53.05 29.17 90.14 -1.69 18.89 -30.68 14.29 -8.48 -12.59 8.25 3.19 33.14 -1.05 -2.48 20.57 -5.69 -10.15 -80.00 -1.59 0.66 85.65 -2.68 3.91 -0.00 -0.00 0.00 
1770.753662 50.594379 2634.194580 -2.10 -27.49 88.96 3.11 8.43 -15.31 1.33 3.61 -6.56 -7.47 4.16 8.49 7.95 -8.52 9.26 3.47 -0.75 -0.13 -84.80 -17.53 9.75 -121.68 3.22 41.54 17.59 16.67 5.20 7.85 -13.35 -0.06 55.82 -61.20 23.58 91.98 -2.51 27.79 -37.58 18.93 -14.19 -9.33 7.72 4.42 42.27 -0.48 -2.98 26.00 -4.05 -10.33 -74.39 -2.07 1.31 59.37 -0.95 3.45 -0.00 -0.00 0.00 
1778.737061 50.382282 2634.563721 -0.17 -26.51 87.95 4.27 9.18 -14.57 1.83 3.93 -6.24 -8.30 3.86 8.34 7.78 -10.89 9.09 3.68 -1.46 -0.08 -84.41 -13.47 9.17 -118.01 3.53 45.55 13.20 13.08 3.07 6.94 -12.31 -0.15 66.42 -58.78 9.58 92.67 -2.78 31.32 -36.38 20.77 -14.77 -11.12 5.07 2.98 64.73 0.42 -3.50 30.27 -6.20 -8.91 -65.96 -4.08 0.65 37.77 0.38 2.54 -0.00 -0.00 0.00 
1796.534912 49.144791 2635.351074 -0.05 -24.75 87.77 3.79 9.81 -10.97 1.62 4.20 -4.69 -5.22 2.38 6.83 7.34 -12.57 7.58 2.07 -1.35 -0.12 -85.26 -5.72 11.72 -111.20 3.61 45.33 13.69 15.85 3.73 5.38 -7.96 -0.05 67.70 -49.30 5.28 93.79 -2.55 30.28 -31.52 15.06 -9.21 -14.07 3.35 4.74 89.23 1.90 -3.96 31.58 -2.64 -10.94 -58.76 -4.38 -3.31 34.05 0.96 2.12 -0.00 -0.00 0.00 
1794.411011 47.189377 2635.329590 -2.73 -24.24 88.77 2.90 12.20 -5.01 1.25 5.23 -2.15 -3.93 0.07 5.49 6.85 -14.09 5.97 2.11 -2.73 -0.08 -86.00 2.14 13.91 -101.70 3.28 40.78 12.74 17.27 3.82 4.06 -3.52 -0.08 65.30 -32.99 5.02 94.52 -2.44 27.99 -27.61 11.20 -6.01 -22.85 5.88 7.91 111.80 3.19 -3.73 34.07 -4.07 -9.57 -52.27 -2.12 -9.19 40.85 0.48 2.36 -0.00 -0.00 0.00 
1801.588623 45.552109 2635.689941 -6.86 -24.24 90.38 3.80 14.30 1.39 1.63 6.13 0.60 -7.16 -0.60 4.76 7.07 -16.08 5.34 1.66 -3.19 -0.09 -86.33 10.07 12.22 -94.77 3.16 38.69 14.61 18.78 4.79 4.28 -0.74 -0.12 65.68 -11.74 6.67 96.22 -2.37 27.73 -27.16 12.15 -6.28 -39.36 10.23 6.67 128.11 4.16 -3.03 38.79 -9.83 -4.99 -47.34 3.19 -9.01 49.20 0.12 3.15 -0.00 -0.00 0.00 
1817.506714 45.652054 2636.465088 -6.04 -24.72 90.00 4.15 11.70 6.48 1.77 5.01 2.77 -7.20 0.01 3.54 5.93 -15.52 4.39 0.60 -0.77 -0.17 -84.05 20.75 11.39 -92.91 2.88 35.58 15.23 22.45 5.97 6.35 -2.14 -0.02 72.80 7.29 8.75 99.68 -2.72 31.71 -30.56 13.80 -8.06 -60.73 8.54 3.57 130.03 4.54 -3.18 39.13 -7.69 -6.52 -38.17 3.94 -3.87 49.66 0.08 3.14 -0.00 -0.00 0.00 
1817.439453 47.223709 2636.556641 -1.34 -24.71 87.95 3.16 8.10 9.69 1.35 3.47 4.15 -5.91 -1.28 -0.15 8.54 -12.33 0.10 0.40 0.34 -0.06 -74.35 30.83 20.08 -97.04 2.79 32.48 14.42 21.09 5.31 5.54 -5.24 -0.02 77.94 17.84 13.52 107.30 -2.63 31.72 -31.28 9.62 -5.90 -73.30 0.82 1.25 116.23 4.01 -3.20 31.43 -1.26 -11.59 -25.36 -1.29 -2.68 44.97 -0.02 2.81 -0.00 -0.00 0.00 
1836.598511 49.166916 2637.545410 2.89 -25.33 86.08 1.37 4.55 12.56 0.59 1.94 5.37 -4.76 -3.20 -3.96 9.99 -9.11 -4.04 -1.06 1.59 -0.15 -63.42 40.04 27.69 -103.28 2.56 29.80 12.23 19.25 4.02 3.98 -7.23 -0.02 77.77 19.79 16.89 114.98 -2.65 32.07 -30.74 9.14 -5.55 -76.18 -4.92 -0.61 93.34 2.59 -4.10 26.72 -1.32 -11.69 -15.70 -6.32 -4.89 40.54 0.16 2.31 -0.00 -0.00 0.00 
1834.834595 50.370075 2637.536133 2.41 -25.42 86.20 0.59 2.52 15.66 0.24 1.07 6.71 -4.90 -4.22 -5.94 9.96 -6.34 -6.24 -2.07 2.18 -0.10 -53.98 48.26 31.61 -109.43 2.10 25.07 12.28 18.07 3.85 3.29 -8.00 -0.13 75.62 18.10 19.01 119.14 -2.58 32.07 -30.43 11.43 -6.77 -71.73 -3.58 -3.12 64.19 0.42 -4.12 23.32 -2.53 -11.18 -10.18 -5.99 -5.30 45.31 0.10 2.76 -0.00 -0.00 0.00 
1842.305298 50.405933 2637.945068 -0.20 -24.59 87.28 1.35 0.97 16.89 0.58 0.41 7.24 -6.04 -3.51 -6.23 10.17 -4.16 -6.49 -2.28 2.60 -0.08 -53.89 52.34 27.16 -112.90 2.20 25.28 11.29 16.71 3.33 3.98 -7.47 -0.02 74.85 14.04 21.71 117.94 -2.63 31.51 -32.04 9.34 -6.05 -63.34 0.28 -4.11 35.00 -1.01 -2.77 23.18 -1.43 -11.67 -8.95 -3.65 -4.99 61.72 -0.64 3.05 -0.00 -0.00 0.00 
1860.664673 49.244736 2638.796631 -0.80 -22.81 87.50 1.72 0.11 14.38 0.73 0.05 6.17 -4.39 -2.57 -5.29 9.24 -2.07 -5.40 -1.58 1.66 -0.08 -61.90 48.01 19.28 -112.63 2.22 26.04 12.05 16.32 3.47 4.38 -7.06 -0.11 76.70 7.17 23.23 111.16 -2.56 31.26 -32.90 7.83 -5.22 -57.04 1.79 -1.40 26.19 -1.07 -2.34 23.30 -0.63 -12.17 -10.00 -2.66 -6.55 80.33 -2.04 3.40 -0.00 -0.00 0.00 
1858.046265 47.340439 2638.494385 -0.97 -21.89 87.60 1.20 -0.95 9.80 0.51 -0.40 4.20 -2.74 -1.55 -3.16 7.73 -0.04 -3.13 0.55 -2.13 -0.09 -67.64 36.48 14.86 -111.28 2.41 28.50 13.10 15.69 3.58 4.78 -6.04 -0.02 78.34 -2.10 25.40 101.12 -2.65 29.76 -42.23 0.84 -0.70 -52.51 3.80 2.70 32.98 -1.04 -2.68 16.22 -5.52 -10.91 -16.76 -5.14 -8.58 100.79 -3.68 3.49 -0.00 -0.00 0.00 
1865.730591 45.709274 2638.805664 2.62 -22.08 86.34 2.09 -3.55 3.77 0.89 -1.51 1.61 -4.71 -0.55 -0.84 5.74 1.46 -0.79 2.31 -5.57 -0.10 -71.52 19.68 13.21 -109.41 2.56 30.98 14.10 15.33 3.71 5.05 -5.19 -0.06 79.76 -9.20 19.33 90.52 -2.86 32.23 -39.29 8.90 -7.22 -50.01 1.00 7.07 44.90 -0.64 -2.92 0.91 -4.72 -11.94 -29.72 -11.15 -7.03 117.19 -4.55 2.70 -0.00 -0.00 0.00 
1880.952759 45.468185 2639.449707 4.62 -21.93 85.68 4.19 -4.03 -3.54 1.79 -1.72 -1.51 -6.28 0.18 1.10 4.97 3.80 1.05 0.27 -4.95 -0.16 -77.31 -1.47 10.27 -108.28 3.02 37.36 13.37 13.78 3.12 5.29 -5.19 -0.05 78.82 -20.83 10.92 85.16 -3.01 35.06 -34.39 10.22 -7.16 -41.25 -2.20 4.42 48.52 -0.70 -3.18 -6.43 -2.49 -12.46 -49.90 -13.41 -3.99 124.12 -4.86 2.31 -0.00 -0.00 0.00 
1880.879517 46.752213 2639.352051 2.53 -23.43 86.53 3.90 0.10 -9.45 1.66 0.05 -4.05 -5.66 -0.21 4.21 5.92 2.16 4.18 0.98 -3.46 -0.12 -83.34 -12.46 7.97 -110.81 3.25 41.37 14.88 13.86 3.57 4.48 -6.00 -0.06 69.52 -30.62 15.98 86.36 -2.89 33.71 -33.69 10.13 -6.82 -31.51 -0.24 1.17 45.01 -0.31 -3.20 -1.73 -4.12 -12.31 -65.05 -11.12 -4.81 117.37 -4.54 2.97 -0.00 -0.00 0.00 
1899.360962 48.671768 2640.127197 0.06 -24.61 87.63 3.31 3.69 -13.91 1.41 1.58 -5.95 -5.85 1.75 7.59 6.90 -1.83 7.86 2.98 -1.41 -0.10 -86.52 -18.14 7.98 -115.98 3.20 39.75 11.85 13.88 2.86 4.63 -8.42 -0.08 59.25 -40.86 24.65 88.48 -2.49 28.11 -33.43 10.79 -7.21 -19.90 4.16 0.69 37.42 -0.78 -2.43 11.31 -8.33 -10.50 -73.53 -6.43 -3.60 101.26 -3.69 3.48 -0.00 -0.00 0.00 
1884.779785 48.947952 2639.803467 -1.41 -26.78 88.42 3.87 6.44 -15.74 1.66 2.76 -6.74 -8.36 4.07 7.37 8.00 -4.58 8.05 2.90 -0.69 -0.15 -86.93 -22.45 11.14 -120.55 3.25 40.56 15.69 17.60 4.82 5.75 -11.97 -0.01 54.15 -49.43 28.14 89.18 -1.50 16.09 -29.62 14.42 -8.17 -15.88 6.64 0.96 34.51 -1.01 -2.50 14.38 -4.99 -10.77 -80.74 -3.04 0.12 95.38 -3.22 3.63 -0.00 -0.00 0.00 
